# xmcd
#
# Track frame offsets:
#	150
#	12103
#	25886
#	38412
#	48802
#	60593
#	72462
#	83861
#	92912
#	104185
#	117458
#	127850
#
# Disc length: 1873 seconds
#
# Revision: 0
# Processed by: cddbd v1.4PL0 Copyright (c) Steve Scherf et al.
# Submitted via: dBpowerAMP V4.0
#
DISCID=99074f0c
DTITLE=Charley Pride - The Sensational Charley Pride
DYEAR=1998
DGENRE=Country
TTITLE0=Louisiana Man
TTITLE1=She's Still Got A Hold On You
TTITLE2=Let The Chips Fall
TTITLE3=Come On Home and Sing The Blues To Daddy
TTITLE4=Never More Than I
TTITLE5=Let Me Live Again
TTITLE6=Take Care Of The Little Things
TTITLE7=Even After Everything She's Done
TTITLE8=(It's Just A Matter Of) Making Up My Mind
TTITLE9=It's The Little Things
TTITLE10=Billy Bayou
TTITLE11=We Had All The Good Things Going
EXTD=
EXTT0=
EXTT1=
EXTT2=
EXTT3=
EXTT4=
EXTT5=
EXTT6=
EXTT7=
EXTT8=
EXTT9=
EXTT10=
EXTT11=
PLAYORDER=
